<?xml version="1.0" encoding="UTF-8"?><!DOCTYPE svg PUBLIC "-//W3C//DTD SVG 1.1//EN" "http://www.w3.org/Graphics/SVG/1.1/DTD/svg11.dtd"><svg xmlns="http://www.w3.org/2000/svg"><symbol id="arrow-down" viewBox="0 0 512 512"><path d="M256 276.3l151.1-150.4 54.9 55.2-206 205-206-205 54.9-55.2z"/></symbol><symbol id="arrow-left" viewBox="0 0 512 512"><path d="M252.1 256l150.4 151.1-55.1 54.9-205.1-206L347.4 50l55.1 54.9z"/></symbol><symbol id="arrow-outline-down" viewBox="0 0 512 512"><path d="M256 90c-91.755 0-166 74.258-166 166 0 91.755 74.26 166 166 166 91.755 0 166-74.258 166-166 0-91.755-74.26-166-166-166zm0 372c-113.77 0-206-92.23-206-206S142.23 50 256 50s206 92.23 206 206-92.23 206-206 206zm87.402-262.045l32.106 32.263L255 352.154 134.49 232.218l32.107-32.263L255 287.938l88.402-87.983z"/></symbol><symbol id="arrow-right" viewBox="0 0 512 512"><path d="M142.332 104.886L197.48 50 402.5 256 197.48 462l-55.148-54.887L292.727 256z"/></symbol><symbol id="arrow-up" viewBox="0 0 512 512"><path d="M104.9 386.1L50 330.9l206-205 206 205-54.9 55.2L256 235.7z"/></symbol><symbol id="cart" viewBox="0 0 512 512"><path d="M346.914 143.61H50.168l53.563 121.165h205.086l38.098-121.166zm114.918-38.5l-12.746 40h-29.98l-59.178 188.165H132.856l-17.625-40h215.45l59.18-188.166h71.972zM316.816 380c0 14.852-12.04 26.89-26.89 26.89s-26.89-12.038-26.89-26.89 12.038-26.89 26.89-26.89 26.89 12.038 26.89 26.89zm-88.883 0c0 14.852-12.04 26.89-26.893 26.89-14.852 0-26.89-12.038-26.89-26.89s12.038-26.89 26.89-26.89c14.853 0 26.893 12.038 26.893 26.89z"/></symbol><symbol id="check" viewBox="0 0 512 512"><path d="M398.218 92.985l-198.49 198.49-85.974-86L50 269.243l149.733 149.773L462 156.725z"/></symbol><symbol id="controls" viewBox="0 0 512 512"><path d="M50 279.694h119v69h-39.5V442h-40v-93.306H50v-69zm147-32.444h39.5V442h40V247.25H316v-69H197v69zM276.5 70h-40v78.25h40V70zM462 279.89H343v69h39.5V442h40v-93.11H462v-69zM129.5 70h-40v179.694h40V70zm293 0h-40v179.694h40V70z"/></symbol><symbol id="cross" viewBox="0 0 512 512"><path d="M438.393 374.595L319.757 255.977l118.62-118.63-63.782-63.74-118.6 118.618-118.62-118.603-63.768 63.73 118.64 118.63L73.62 374.626l63.73 63.768 118.65-118.66 118.65 118.645z"/></symbol><symbol id="exitfullscreen" viewBox="0 0 512 512"><path d="M107.252 331.862l-34.997-35.058h142.94v142.938l-35.058-34.996L122.884 462 50 389.113l57.252-57.25zm333.664-117.84l-34.996-35.06L462 122.885 389.114 50l-56.08 56.08-35.056-34.996v142.938h142.938zm-260.78-106.77l35.057-34.997v142.94H72.255l34.998-35.058L50 122.884 122.885 50l57.25 57.252zm117.843 333.664l35.057-34.996L389.115 462 462 389.114l-56.08-56.08 34.996-35.056H297.98v142.938z"/></symbol><symbol id="fullscreen" viewBox="0 0 512 512"><path d="M157.943 426.942L192.94 462H50V319.062l35.058 34.997 57.253-57.255 72.885 72.886-57.252 57.252zM319.063 50l34.996 35.058-56.08 56.08 72.884 72.884 56.08-56.08L462 192.938V50H319.062zM85.057 157.943L50 192.94V50h142.938L157.94 85.058l57.254 57.253-72.886 72.885-57.25-57.252zM462 319.063l-35.058 34.996-56.08-56.08-72.884 72.884 56.08 56.08L319.062 462H462V319.062z"/></symbol><symbol id="help" viewBox="0 0 512 512"><path d="M256 90c91.74 0 166 74.244 166 166 0 91.74-74.245 166-166 166-91.74 0-166-74.245-166-166 0-91.74 74.244-166 166-166m0-40C142.23 50 50 142.23 50 256s92.23 206 206 206 206-92.23 206-206S369.77 50 256 50zm2.025 329.51c-14.546 0-26.343-11.796-26.343-26.348 0-14.543 11.797-26.336 26.343-26.336 14.55 0 26.342 11.793 26.342 26.336 0 14.552-11.793 26.35-26.342 26.35zm20.71-77.864v4.74h-43.423v-4.74c0-13.408 1.956-30.61 17.523-45.565 15.57-14.957 35.024-27.31 35.024-45.995 0-20.655-14.336-31.58-32.41-31.58-30.116 0-32.085 31.233-32.827 38.11H180.39c1.125-32.57 14.89-78.126 75.315-78.126 52.363 0 75.905 35.07 75.905 67.956 0 52.347-52.875 61.44-52.875 95.2z"/></symbol><symbol id="link" viewBox="0 0 512 512"><path d="M156.226 199.68c7.54-7.54 15.902-13.758 24.794-18.66 49.556-27.318 113.117-12.788 144.97 35.518l-38.547 38.547c-11.06-25.227-38.5-39.565-65.813-33.456-10.282 2.3-20.054 7.426-28.04 15.412l-73.897 73.896c-22.433 22.433-22.432 58.936.002 81.37 22.433 22.432 58.935 22.432 81.368 0l22.78-22.78c20.71 8.217 42.938 11.508 64.862 9.863l-50.278 50.28c-43.105 43.104-112.99 43.104-156.096 0-43.104-43.105-43.105-112.992 0-156.097l73.896-73.894zM273.574 82.33l-50.278 50.278c21.928-1.643 44.152 1.648 64.863 9.865l22.778-22.78c22.434-22.434 58.936-22.434 81.37 0 22.434 22.434 22.434 58.936 0 81.37l-73.897 73.895c-22.5 22.5-59.06 22.31-81.367 0-5.202-5.2-9.694-11.678-12.484-18.04l-38.547 38.546c4.05 6.142 8.26 11.453 13.666 16.858 13.948 13.95 31.697 24.34 52.116 29.25 26.466 6.37 54.823 2.84 79.185-10.59 8.893-4.904 17.255-11.12 24.795-18.66l73.896-73.895c43.106-43.105 43.106-112.99.002-156.097-43.106-43.105-112.992-43.105-156.098 0z"/></symbol><symbol id="microphone" viewBox="0 0 512 512"><path d="M188 240.084v-122c0-37.555 30.445-68 68-68 37.556 0 68 30.445 68 68v122c0 37.555-30.444 68-68 68-37.555 0-68-30.445-68-68zm166-35v35c0 54.037-43.963 98-98 98s-98-43.963-98-98v-35h-40v35c0 68.432 50.07 125.38 115.5 136.156v45.676H176v40h160v-40h-57.5V376.24C343.93 365.463 394 308.516 394 240.084v-35h-40z"/></symbol><symbol id="paper" viewBox="0 0 512 512"><path d="M173.443 245.694c0-12.11 9.82-21.932 21.933-21.932 12.11 0 21.932 9.82 21.932 21.932 0 12.113-9.82 21.933-21.932 21.933-12.112 0-21.933-9.82-21.933-21.933zm111.243 2.965l-36.355 51.653-19.758-20.364-55.747 75.148h174.26l-62.4-106.44zM297.818 90v85.75h85.864V422H128.317V90h169.5m25-40h-234.5v412h335.365V150.75L322.818 50z"/></symbol><symbol id="picture" viewBox="0 0 512 512"><path d="M142.843 202.59c0-16.86 13.67-30.53 30.53-30.53s30.53 13.67 30.53 30.53c0 16.862-13.67 30.53-30.53 30.53s-30.53-13.668-30.53-30.53zm154.853.977l-50.608 71.905-27.504-28.35-77.604 88.175h242.578l-86.862-131.73zM422 140.5v231H90v-231h332m40-40H50v311h412v-311z"/></symbol><symbol id="recycle" viewBox="0 0 512 512"><path d="M77.728 245.27l-26.354-16.923 92.69-10.612 33.026 86.244-26.052-16.497c-25.448 41.224-48.81 89.52-33.973 135.54C74.082 386.593 50 358.598 50 324.768c0-24.41 15.86-57.31 27.728-79.497zm69.64 96.564c-13.094 15.976-17.2 49.555-12.926 69.873 1.96 9.32 10.167 15.96 19.69 15.96h84.702v-85.833h-91.467zm183.804 88.85V462l-57.87-73.193 57.87-73.494v30.846c48.448-.1 99.53-5.718 130.828-42.582-8.314 55.725-19.413 90.964-48.146 108.784-20.755 12.857-57.57 16.712-82.682 18.322zm45.85-110.075c20.485 2.698 51.197-11.5 66.218-25.85 6.89-6.573 8.198-17.034 3.186-25.14l-44.643-71.97-72.96 45.214 48.198 77.745zm-16.077-198.473l27.644-14.744-35.994 86.068-91.382-13.26 27.108-14.694c-23.57-42.338-54.3-86.303-101.727-95.833C219.278 57.47 245.605 50 267.92 50c38.406 0 60.77 21.71 93.025 72.137zm-118.273 13.638c-7.56-19.23-34.86-39.22-54.693-45.406-9.087-2.834-18.878 1.08-23.53 9.395l-41.34 73.93 74.918 41.903 44.644-79.823z"/></symbol><symbol id="redo" viewBox="0 0 512 512"><path d="M124.072 110.334c80.324-80.324 210.48-80.442 290.955-.362l33.13-33.132.106 122.838-122.838-.105 31.336-31.336c-48.298-47.9-126.278-47.782-174.423.363-48.27 48.27-48.27 126.53 0 174.796 24.135 24.135 55.766 36.2 87.398 36.2v82.4c-52.72 0-105.44-20.11-145.664-60.335-80.445-80.445-80.445-210.877.002-291.326z"/></symbol><symbol id="reset" viewBox="0 0 512 512"><path d="M92.07 256.41H50l78.344 78.02 77.536-78.02h-39.825c-.104-61.08 49.192-111.032 110.33-111.387 61.292-.358 111.27 49.04 111.625 110.33.58 98.965-119.057 148.512-188.892 79.687l-51.93 52.687C263.344 502.21 462.963 420.142 462 254.923 461.4 152.77 378.105 70.44 275.952 71.037 173.955 71.632 91.725 154.47 92.07 256.41z"/></symbol><symbol id="setting" viewBox="0 0 512 512"><path d="M462 283.742v-55.485l-29.98-10.662c-11.432-4.065-20.63-12.794-25.275-24l-.006-.014c-4.66-11.234-4.334-23.917.888-34.902l13.653-28.724-39.233-39.234-28.72 13.652c-10.98 5.22-23.68 5.546-34.908.89l-.015-.006c-11.215-4.65-19.933-13.834-24-25.273L283.74 50h-55.483l-10.662 29.98c-4.065 11.432-12.794 20.628-24 25.275l-.015.005c-11.235 4.66-23.92 4.333-34.905-.89L129.952 90.72l-39.234 39.234 13.653 28.72c5.22 10.98 5.546 23.682.89 34.91l-.006.014c-4.65 11.214-13.834 19.93-25.27 23.998L50 228.257v55.485l29.98 10.66c11.43 4.066 20.627 12.795 25.274 24l.005.015c4.66 11.236 4.333 23.92-.89 34.906l-13.653 28.723 39.234 39.234 28.722-13.652c10.98-5.22 23.68-5.546 34.91-.89l.013.007c11.214 4.65 19.93 13.833 23.998 25.27L228.257 462h55.484l10.596-29.79c4.103-11.538 12.908-20.824 24.216-25.525l.014-.006c11.127-4.63 23.694-4.312 34.578.862l28.902 13.738 39.234-39.234-13.66-28.737c-5.214-10.97-5.54-23.66-.886-34.878l.006-.014c4.654-11.225 13.848-19.95 25.297-24.02L462 283.74zm-206 47.804c-41.724 0-75.548-33.823-75.548-75.546s33.824-75.547 75.548-75.547c41.723 0 75.546 33.824 75.546 75.547S297.723 331.546 256 331.546z"/></symbol><symbol id="shuffle" viewBox="0 0 512 512"><path d="M102.32 187.96H50v-40h52.32c38.262 0 75.372 15.735 102.146 44.484-1.163 1.716-22.36 35.536-22.36 35.536-18.735-25.198-47.99-40.02-79.787-40.02zM462 342.986l-88.49-55.225v36.195h-28.663c-31.797 0-61.052-14.823-79.788-40.02 0 0-21.197 33.82-22.36 35.535 26.8 28.776 63.93 44.484 102.147 44.484h28.768l.086 33.082 88.3-54.05zm0-173.974l-88.3-54.053-.086 33.082h-28.768c-47.448 0-92.504 24.248-118.344 65.592l-39.76 63.616c-18.312 29.3-49.872 46.79-84.424 46.79H50v40h52.32c47.447 0 92.503-24.247 118.343-65.59l39.76-63.617c18.312-29.3 49.872-46.79 84.424-46.79h28.664l-.094 36.194L462 169.013z"/></symbol><symbol id="soundwave" viewBox="0 0 512 512"><path d="M226.496 363.925l-29.6-117.792-20.778 64.322c-2.808 8.692-14.91 9.365-18.645 1.008l-19.977-44.682-12.85 17.878c-1.88 2.614-4.9 4.164-8.12 4.164H50v-20h61.4l20.007-27.836c4.48-6.24 14.096-5.298 17.25 1.754l16.44 36.77 23.485-72.704c3.07-9.5 16.767-9.105 19.214.637l26.3 104.667 26.562-163.228c1.75-10.763 17.197-11.34 19.625-.596l30.817 136.52 21.115-53.96c3.253-8.315 14.97-8.528 18.502-.3l25.42 59.222 12.317-16.85c1.883-2.574 4.882-4.097 8.072-4.097H462v20h-60.396l-19.67 26.903c-4.575 6.257-14.215 5.138-17.262-1.958l-22.717-52.928-24.115 61.628c-3.592 9.173-16.906 8.13-19.067-1.442l-26.65-118.063-26.058 160.134c-1.74 10.684-16.917 11.39-19.57.83z"/></symbol><symbol id="undo" viewBox="0 0 512 512"><path d="M387.928 110.335c-80.324-80.325-210.48-80.443-290.955-.363L63.843 76.84l-.106 122.838 122.838-.105-31.336-31.335c48.298-47.9 126.278-47.783 174.423.363 48.27 48.27 48.27 126.53 0 174.798-24.135 24.134-55.766 36.2-87.398 36.2V462c52.72 0 105.44-20.11 145.664-60.335 80.445-80.448 80.445-210.88-.002-291.328z"/></symbol><symbol id="upload" viewBox="0 0 512 512"><path d="M154.647 236.73L258 133.197l103.352 103.53h-47.53v38.77H202.178v-38.77h-47.53zm159.176 56.78H202.177v31.318h111.646V293.51zm-111.646 47.76v25.53h111.646v-25.53H202.177zM422 256c0-91.756-74.258-166-166-166-91.755 0-166 74.258-166 166 0 91.755 74.258 166 166 166 91.755 0 166-74.26 166-166zm-372 0c0-113.77 92.23-206 206-206s206 92.23 206 206-92.23 206-206 206S50 369.77 50 256z"/></symbol><symbol id="wand" viewBox="0 0 512 512"><path d="M138.676 91.794L91.27 139.202 414.066 462l47.407-47.407-322.798-322.8zM175.68 195.31l-56.108-56.108 19.104-19.104 56.107 56.11-19.104 19.102zm25.22-100.7c21.15 6.46 37.705 23.014 44.165 44.164 6.46-21.152 23.013-37.706 44.162-44.165-21.15-6.46-37.702-23.014-44.163-44.164-6.46 21.15-23.013 37.705-44.164 44.163zM109.098 214c-8.567 28.052-30.523 50.004-58.572 58.572 28.05 8.568 50.005 30.522 58.572 58.572 8.567-28.05 30.52-50.003 58.572-58.572-28.05-8.567-50.005-30.52-58.572-58.572zm163.974-54.347c14.96 4.57 26.67 16.28 31.24 31.24 4.568-14.96 16.275-26.67 31.238-31.24-14.963-4.568-26.67-16.277-31.24-31.24-4.568 14.96-16.277 26.672-31.238 31.24zM349.077 50c-5.213 17.067-18.572 30.427-35.643 35.64 17.07 5.215 30.43 18.574 35.643 35.643 5.213-17.07 18.572-30.43 35.64-35.642-17.07-5.21-30.427-18.57-35.64-35.64z"/></symbol><symbol id="warning" viewBox="0 0 512 512"><path d="M256.002 50C142.23 50 50 142.23 50 256S142.23 462 256 462c113.77 0 206-92.23 206-206S369.77 50 256 50zM225.5 120.792h61v185h-61v-185zM256 401.21c-18.18 0-32.917-14.74-32.917-32.92S237.82 335.374 256 335.374s32.917 14.738 32.917 32.918S274.18 401.21 256 401.21z"/></symbol><symbol id="webcam" viewBox="0 0 512 512"><path d="M427.557 462H84.747l70.095-86.115c-47.506-32.67-77.48-87.062-77.48-147.248C77.362 130.137 157.498 50 256 50s178.64 80.136 178.64 178.637c0 59.802-29.68 114.523-77.782 147.455l70.7 85.908zm-256.16-41.195H340.3l-47.13-57.267c46.073-18.712 100.27-58.716 100.27-134.9 0-75.786-61.655-137.442-137.442-137.442-75.785 0-137.443 61.656-137.443 137.44 0 73.46 47.67 112.07 99.633 134.683l-46.794 57.485zM256 199.355c17.598 0 31.912 14.316 31.912 31.912 0 17.597-14.314 31.912-31.912 31.912-17.596 0-31.912-14.316-31.912-31.913 0-17.595 14.316-31.912 31.912-31.912m0-41.195c-40.377 0-73.107 32.73-73.107 73.107s32.73 73.107 73.107 73.107 73.107-32.73 73.107-73.107c0-40.375-32.73-73.107-73.107-73.107z"/></symbol></svg>